<svg width="30" height="29" viewBox="0 0 30 29" fill="none" xmlns="http://www.w3.org/2000/svg">
<path d="M15 0.33327C11.1513 0.294161 7.4445 1.78475 4.6943 4.47744C1.94411 7.17013 0.375542 10.8446 0.333328 14.6933C0.348158 17.7348 1.32659 20.6934 3.12808 23.1441C4.92957 25.5948 7.46143 27.4115 10.36 28.3333C11.0933 28.4666 11.36 28.0266 11.36 27.6399V25.1999C7.28 26.0666 6.41333 23.2799 6.41333 23.2799C6.14172 22.4051 5.5643 21.6573 4.78666 21.1733C3.45333 20.2933 4.89333 20.3066 4.89333 20.3066C5.3542 20.3682 5.79514 20.5334 6.18307 20.7897C6.57101 21.046 6.89589 21.3868 7.13333 21.7866C7.5471 22.5041 8.22604 23.0305 9.02401 23.2524C9.82198 23.4743 10.6752 23.3741 11.4 22.9733C11.4745 22.2431 11.8052 21.5629 12.3333 21.0533C9.08 20.6933 5.66666 19.4666 5.66666 13.9599C5.63757 12.5235 6.16832 11.1321 7.14666 10.0799C6.7011 8.8467 6.75371 7.48835 7.29333 6.29327C7.29333 6.29327 8.53333 5.9066 11.2933 7.75994C13.6959 7.11972 16.2241 7.11972 18.6267 7.75994C21.4267 5.9066 22.6267 6.29327 22.6267 6.29327C23.1663 7.48835 23.2189 8.8467 22.7733 10.0799C23.7744 11.1128 24.3339 12.4949 24.3333 13.9333C24.3333 19.4533 20.8933 20.6666 17.6667 21.0266C18.02 21.3696 18.2929 21.7867 18.4658 22.2478C18.6387 22.7088 18.7073 23.2025 18.6667 23.6933V27.6266C18.6667 28.0933 18.9333 28.4666 19.6667 28.3199C22.557 27.3925 25.0803 25.5754 26.8763 23.1281C28.6722 20.6809 29.6488 17.7287 29.6667 14.6933C29.6244 10.8446 28.0559 7.17013 25.3057 4.47744C22.5555 1.78475 18.8487 0.294161 15 0.33327Z" fill="#F6FFFA"/>
</svg>
