<svg width="20" height="28" viewBox="0 0 20 28" fill="none" xmlns="http://www.w3.org/2000/svg">
<path d="M9.99996 13.3333C9.1159 13.3333 8.26806 12.9821 7.64294 12.357C7.01782 11.7319 6.66663 10.884 6.66663 9.99996C6.66663 9.1159 7.01782 8.26806 7.64294 7.64294C8.26806 7.01782 9.1159 6.66663 9.99996 6.66663C10.884 6.66663 11.7319 7.01782 12.357 7.64294C12.9821 8.26806 13.3333 9.1159 13.3333 9.99996C13.3333 10.4377 13.2471 10.8712 13.0796 11.2756C12.912 11.68 12.6665 12.0475 12.357 12.357C12.0475 12.6665 11.68 12.912 11.2756 13.0796C10.8712 13.2471 10.4377 13.3333 9.99996 13.3333ZM9.99996 0.666626C7.5246 0.666626 5.15064 1.64996 3.4003 3.4003C1.64996 5.15064 0.666626 7.5246 0.666626 9.99996C0.666626 17 9.99996 27.3333 9.99996 27.3333C9.99996 27.3333 19.3333 17 19.3333 9.99996C19.3333 7.5246 18.35 5.15064 16.5996 3.4003C14.8493 1.64996 12.4753 0.666626 9.99996 0.666626Z" fill="#F6FFFA"/>
</svg>
