<svg width="28" height="22" viewBox="0 0 28 22" fill="none" xmlns="http://www.w3.org/2000/svg">
<path d="M24.6666 5.66659L14 12.3333L3.33329 5.66659V2.99992L14 9.66659L24.6666 2.99992M24.6666 0.333252H3.33329C1.85329 0.333252 0.666626 1.51992 0.666626 2.99992V18.9999C0.666626 19.7072 0.947577 20.3854 1.44767 20.8855C1.94777 21.3856 2.62605 21.6666 3.33329 21.6666H24.6666C25.3739 21.6666 26.0521 21.3856 26.5522 20.8855C27.0523 20.3854 27.3333 19.7072 27.3333 18.9999V2.99992C27.3333 2.29267 27.0523 1.6144 26.5522 1.1143C26.0521 0.614203 25.3739 0.333252 24.6666 0.333252Z" fill="#F6FFFA"/>
</svg>
