<svg width="33" height="54" viewBox="0 0 33 54" fill="none" xmlns="http://www.w3.org/2000/svg">
<path d="M8.73537 25.6625C11.5137 23.8335 14.8114 22.9575 18.1312 23.1667C21.4509 23.376 24.6126 24.6591 27.1393 26.8225C29.666 28.9859 31.4206 31.9123 32.1386 35.1602C32.8565 38.4081 32.4988 41.8014 31.1194 44.8282C29.74 47.8551 27.4138 50.3513 24.4915 51.9403C21.5693 53.5293 18.2096 54.125 14.9192 53.6374C11.6288 53.1499 8.58617 51.6056 6.25028 49.2374C3.91439 46.8693 2.41193 43.8058 1.96954 40.509C0.57037 33.6358 0.0260353 25.375 2.76303 17.8962C5.69937 9.88449 12.2084 3.31416 23.8655 0.262833C24.8369 0.0396194 25.8571 0.203548 26.7097 0.71986C27.5623 1.23617 28.1802 2.06426 28.4325 3.02853C28.6848 3.9928 28.5516 5.01742 28.0611 5.88512C27.5706 6.75282 26.7615 7.39536 25.8052 7.67649C16.3752 10.1452 11.9669 15.0748 9.96204 20.5335C9.36787 22.1627 8.96537 23.8838 8.73537 25.6625Z" fill="#01AF57"/>
</svg>
