<svg width="28" height="16" viewBox="0 0 28 16" fill="none" xmlns="http://www.w3.org/2000/svg">
<path d="M8.66666 0C10.7884 0 12.8232 0.842855 14.3235 2.34315C15.8238 3.84344 16.6667 5.87827 16.6667 8C16.6667 10.1217 15.8238 12.1566 14.3235 13.6569C12.8232 15.1571 10.7884 16 8.66666 16C6.54492 16 4.51009 15.1571 3.0098 13.6569C1.50951 12.1566 0.666656 10.1217 0.666656 8C0.666656 5.87827 1.50951 3.84344 3.0098 2.34315C4.51009 0.842855 6.54492 0 8.66666 0ZM20.6667 1.33333C22.6667 1.33333 24 4.31867 24 8C24 11.6813 22.6667 14.6667 20.6667 14.6667C18.6667 14.6667 17.3333 11.6813 17.3333 8C17.3333 4.31867 18.6667 1.33333 20.6667 1.33333ZM26 2C26.5067 2 26.9493 3.10267 27.1733 4.99467L27.236 5.58533L27.2613 5.89867L27.3013 6.55733L27.3147 6.90267L27.3307 7.624L27.3333 8L27.3307 8.376L27.3147 9.09733L27.3013 9.444L27.2613 10.1013L27.2347 10.4147L27.1747 11.0053C26.9493 12.8987 26.508 14 26 14C25.4933 14 25.0507 12.8973 24.8267 11.0053L24.764 10.4147C24.7548 10.3103 24.7464 10.2058 24.7387 10.1013L24.6987 9.44267C24.6935 9.32758 24.6891 9.21247 24.6853 9.09733L24.6693 8.376V7.624L24.6853 6.90267L24.6987 6.556L24.7387 5.89867L24.7653 5.58533L24.8253 4.99467C25.0507 3.10133 25.492 2 26 2Z" fill="#F6FFFA"/>
</svg>
